<?xml version="1.0" encoding="utf-8"?>
<!-- Generator: Adobe Illustrator 22.1.0, SVG Export Plug-In . SVG Version: 6.00 Build 0)  -->
<svg version="1.1" id="Layer_1" xmlns="http://www.w3.org/2000/svg" xmlns:xlink="http://www.w3.org/1999/xlink" x="0px" y="0px"
	 viewBox="0 0 998 582" style="enable-background:new 0 0 998 582;" xml:space="preserve">
<title>down-arrow11</title>
<desc>Created with Sketch.</desc>
<g id="Page-1">
	<g id="down-arrow11">
		<path id="Path" d="M998,83c0,8.7-3.3,16.3-10,23L522,572c-6.7,6.7-14.3,10-23,10s-16.3-3.3-23-10L10,106C3.3,99.3,0,91.7,0,83
			s3.3-16.3,10-23l50-50C66.7,3.3,74.3,0,83,0s16.3,3.3,23,10l393,393L892,10c6.7-6.7,14.3-10,23-10s16.3,3.3,23,10l50,50
			C994.7,66.7,998,74.3,998,83z"/>
	</g>
</g>
</svg>
