<svg width="32" height="33" viewBox="0 0 32 33" fill="none" xmlns="http://www.w3.org/2000/svg">
    <circle cx="15.6125" cy="15.9865" r="12.8" fill="white"/>
    <path fill-rule="evenodd" clip-rule="evenodd" d="M0 16.0498C0 7.21325 7.16344 0.0498047 16 0.0498047C24.8366 0.0498047 32 7.21325 32 16.0498C32 24.8864 24.8366 32.0498 16 32.0498C7.16344 32.0498 0 24.8864 0 16.0498ZM9.60016 20.3165C9.60016 21.4946 10.5554 22.4498 11.7335 22.4498C12.9116 22.4498 13.8668 21.4946 13.8668 20.3165C13.8668 19.1383 12.9116 18.1831 11.7335 18.1831C10.5554 18.1831 9.60016 19.1383 9.60016 20.3165ZM24.5333 22.4498C24.5333 14.2157 17.8342 7.51647 9.60016 7.51647V10.3607C16.2662 10.3607 21.6891 15.7837 21.6891 22.4498H24.5333ZM19.5556 22.4498C19.5556 16.9602 15.0895 12.4941 9.6 12.4941V15.3389C13.521 15.3389 16.7114 18.5287 16.7114 22.4498H19.5556Z" fill="#1F1F1F"/>
</svg>
