<svg width="32" height="32" viewBox="0 0 32 32" fill="none" xmlns="http://www.w3.org/2000/svg">
    <circle cx="16" cy="16" r="16" fill="#1F1F1F"/>
    <path d="M25.6767 13.3188C25.6166 12.7713 25.5315 12.2191 25.4413 11.6763C25.3011 10.8362 24.4648 10.0621 23.4983 9.93943C22.5267 9.81672 21.5502 9.73648 20.5737 9.694C19.1264 9.62793 17.6791 9.59961 16.2318 9.59961C14.7845 9.59961 13.3373 9.63265 11.89 9.694C10.9084 9.73648 9.92688 9.82144 8.95535 9.94415C7.98883 10.0669 7.15251 10.8409 7.01229 11.681C6.92215 12.2238 6.83702 12.7713 6.77692 13.3188C6.52653 15.5984 6.58162 17.8686 6.97223 20.1294C7.15752 21.2008 7.88367 21.9324 9.02546 22.0834C9.96194 22.2108 10.9134 22.2863 11.8599 22.3194C13.3122 22.3666 14.7695 22.3949 16.2268 22.3996C17.6841 22.3949 19.1364 22.3666 20.5937 22.3194C21.5402 22.2863 22.4917 22.2108 23.4281 22.0834C24.5699 21.9324 25.2961 21.2008 25.4814 20.1294C25.867 17.8686 25.9221 15.5984 25.6767 13.3188Z" fill="white"/>
    <path d="M14.2988 13.2621C15.9664 14.1778 17.619 15.084 19.2966 16.0043C17.619 16.9247 15.9714 17.8262 14.2988 18.7418C14.2988 16.9105 14.2988 15.1029 14.2988 13.2621Z" fill="#1F1F1F"/>
</svg>
